<svg xmlns="http://www.w3.org/2000/svg" viewBox="0 0 36 36" width="72" height="72" role="img" aria-label="Cat in a bow tie">
  <title>Cat in a bow tie</title>
  <path d="M5 3.6 L15 9.4 7 16.4 Z" fill="#9aa6b8"/>
  <path d="M31 3.6 L21 9.4 29 16.4 Z" fill="#9aa6b8"/>
  <path d="M7 6.6 L12.4 10 8.2 13.6 Z" fill="#f6a6c1"/>
  <path d="M29 6.6 L23.6 10 27.8 13.6 Z" fill="#f6a6c1"/>
  <ellipse cx="18" cy="18.6" rx="13" ry="11" fill="#9aa6b8"/>
  <path d="M18 8.4 L18 12.2 M14.4 8.8 L15.2 11.8 M21.6 8.8 L20.8 11.8" fill="none" stroke="#3a4559" stroke-width="1.3" stroke-linecap="round" stroke-linejoin="round"/>
  <path d="M5.6 17.4 L8.6 18 M5.6 21 L8.6 20.6 M30.4 17.4 L27.4 18 M30.4 21 L27.4 20.6" fill="none" stroke="#3a4559" stroke-width="1.2" stroke-linecap="round" stroke-linejoin="round"/>
  <path d="M18 19.6 C22 19.6 25 21.6 25 24.2 C25 27.4 21.6 29 18 29 C14.4 29 11 27.4 11 24.2 C11 21.6 14 19.6 18 19.6 Z" fill="#f4f6fb"/>
  <circle cx="12.4" cy="16.6" r="1.8" fill="#1f2937"/><circle cx="23.6" cy="16.6" r="1.8" fill="#1f2937"/>
  <path d="M16.2 21.4 L19.8 21.4 18 23.6 Z" fill="#f6a6c1"/>
  <path d="M18 23.6 L18 25 M15.8 25.8 Q17 26.8 18 25 Q19 26.8 20.2 25.8" fill="none" stroke="#3a4559" stroke-width="1.1" stroke-linecap="round" stroke-linejoin="round"/>
  <path d="M18 31.6 L10.6 28 10.6 35.2 Z" fill="#f5c518"/>
  <path d="M18 31.6 L25.4 28 25.4 35.2 Z" fill="#f5c518"/>
  <circle cx="18" cy="31.6" r="2" fill="#c99a06"/>
</svg>
