<svg xmlns="http://www.w3.org/2000/svg" viewBox="0 0 36 36" width="72" height="72" role="img" aria-label="Owl in round glasses">
  <title>Owl in round glasses</title>
  <!-- ear tufts -->
  <path d="M6 4 L13 9 L7.5 12 Z" fill="#7a4a26"/>
  <path d="M30 4 L23 9 L28.5 12 Z" fill="#7a4a26"/>
  <!-- body -->
  <path d="M18 6.5 C27 6.5 31 12 31 19.5 C31 28 25.5 33.5 18 33.5 C10.5 33.5 5 28 5 19.5 C5 12 9 6.5 18 6.5 Z" fill="#a86b3c"/>
  <!-- belly -->
  <path d="M18 21 C23.5 21 26.5 25 26 29 C24.5 32 21.5 33.4 18 33.4 C14.5 33.4 11.5 32 10 29 C9.5 25 12.5 21 18 21 Z" fill="#fff4e0"/>
  <path d="M15 26 l1.5 1.4 l1.5 -1.4 l1.5 1.4 l1.5 -1.4 M13.5 29 l1.5 1.4 l1.5 -1.4 l1.5 1.4 l1.5 -1.4 l1.5 1.4 l1.5 -1.4" fill="none" stroke="#e7c9a0" stroke-width="1.1" stroke-linecap="round" stroke-linejoin="round"/>
  <!-- face discs -->
  <circle cx="12.8" cy="15.5" r="5" fill="#fff4e0"/>
  <circle cx="23.2" cy="15.5" r="5" fill="#fff4e0"/>
  <circle cx="12.8" cy="15.7" r="1.9" fill="#1f2937"/>
  <circle cx="23.2" cy="15.7" r="1.9" fill="#1f2937"/>
  <!-- beak -->
  <path d="M16.3 19 L19.7 19 L18 22.4 Z" fill="#f28a2e"/>
  <!-- keepsake: gold round glasses -->
  <circle cx="12.8" cy="15.5" r="4.6" fill="none" stroke="#f5c518" stroke-width="1.6"/>
  <circle cx="23.2" cy="15.5" r="4.6" fill="none" stroke="#f5c518" stroke-width="1.6"/>
  <path d="M17.4 15 Q18 14 18.6 15" fill="none" stroke="#f5c518" stroke-width="1.6" stroke-linecap="round"/>
</svg>
