<svg xmlns="http://www.w3.org/2000/svg" viewBox="0 0 36 36" width="72" height="72" role="img" aria-label="Phoenix chick with a spark">
  <title>Phoenix chick with a spark</title>
  <path d="M12.6 13.4 C11 10 12.2 7.4 14 6.8 C14 9 15.2 10.4 16.4 11 C16 8.4 17 6.2 18.8 5.6 C18.4 8 19.6 9.8 21 10.6 C21.4 8.8 22.6 7.6 24.2 7.4 C23.4 9.8 24 12.2 24.6 13.6 Z" fill="#e25b2c"/>
  <circle cx="18" cy="21.8" r="11.4" fill="#f28a2e"/>
  <path d="M8.4 26.7 A4 2.4 60 1 1 4.4 19.7 A4 2.4 60 1 1 8.4 26.7 Z" fill="#e25b2c"/>
  <path d="M27.6 26.7 A4 2.4 120 1 1 31.6 19.7 A4 2.4 120 1 1 27.6 26.7 Z" fill="#e25b2c"/>
  <ellipse cx="18" cy="26" rx="6.8" ry="6" fill="#fff4e0"/>
  <circle cx="13.6" cy="19" r="1.8" fill="#1f2937"/><circle cx="22.4" cy="19" r="1.8" fill="#1f2937"/>
  <path d="M16 21.4 L20 21.4 18 24.6 Z" fill="#7a3f12"/>
  <circle cx="10.6" cy="22.2" r="1.3" fill="#f6a6c1"/><circle cx="25.4" cy="22.2" r="1.3" fill="#f6a6c1"/>
  <path d="M18 0.4 Q18.7 2.9 21.2 3.6 Q18.7 4.3 18 6.8 Q17.3 4.3 14.8 3.6 Q17.3 2.9 18 0.4 Z" fill="#f5c518"/>
  <circle cx="18" cy="3.6" r="0.9" fill="#c99a06"/>
  <circle cx="23.4" cy="2.6" r="0.9" fill="#f5c518"/>
  <circle cx="12.8" cy="4.8" r="0.8" fill="#f5c518"/>
</svg>
